[center][img]http://img101.imageshack.us/img101/2390/marsneedsmoms.jpg[/img]




[img]http://leetleech.org/images/48874973695367351744.png[/img]


Format                           : AVI
Format/Info                      : Audio Video Interleave
File size                        : 884 MiB
Duration                         : 1h 21mn
Overall bit rate                 : 1 518 Kbps
Writing library                  : VirtualDub build 32839/release

Video
ID                               : 0
Format                           : MPEG-4 Visual
Format profile                   : Advanced Simple@L5
Format settings, BVOP            : Yes
Format settings, QPel            : No
Format settings, GMC             : No warppoints
Format settings, Matrix          : Custom
Codec ID                         : XVID
Codec ID/Hint                    : XviD
Duration                         : 1h 21mn
Bit rate                         : 1 380 Kbps
Width                            : 720 pixels
Height                           : 304 pixels
Display aspect ratio             : 2.35:1
Frame rate                       : 25.000 fps
Color space                      : YUV
Chroma subsampling               : 4:2:0
Bit depth                        : 8 bits
Scan type                        : Progressive
Bits/(Pixel*Frame)               : 0.252
Stream size                      : 803 MiB (91%)
Writing library                  : XviD 1.2.1 (UTC 2008-12-04)

Audio
ID                               : 1
Format                           : MPEG Audio
Format version                   : Version 1
Format profile                   : Layer 3
Codec ID                         : 55
Codec ID/Hint                    : MP3
Duration                         : 1h 21mn
Bit rate mode                    : Constant
Bit rate                         : 128 Kbps
Channel(s)                       : 2 channels
Sampling rate                    : 44.1 KHz
Stream size                      : 74.5 MiB (8%)
Alignment                        : Split accross interleaves
Interleave, duration             : 40 ms (1.00 video frame)
Interleave, preload duration     : 500 ms



 
http://www.imdb.com/title/tt1305591/




[IMG]http://leetleech.org/images/89524873606771859129.png[/IMG]


Users: 4.2/10 (538 votes) 20 reviews | Critics: 55 reviews Metascore: 49/100 (based on 22 reviews from Metacritic.com)

A young boy named Milo gains a deeper appreciation for his mom after Martians come to Earth to take her away.
Director:
Simon Wells
Writers:
Simon Wells (screenplay), Wendy Wells (screenplay), and 1 more credit »
Stars:
Seth Green, Joan Cusack and Dan Fogler




[img]http://leetleech.org/images/95521316153253938506.png[/img]



 
http://img830.imageshack.us/img830/8868/vlcsnap2011031909h35m20.png 
http://img145.imageshack.us/img145/392/vlcsnap2011031909h35m50.png 
http://img109.imageshack.us/img109/8058/vlcsnap2011031909h34m32.png


VIDEO:planeta.2011.CAMRip ............. Thanks

AUDIO:Imagine ............... Thanks  


Video is dark,samples included so no point moaning afterwards that its dark....You cant really lighten it up much either or the quality goes worse than ever ....Ran a few filters nothing special ..The star of the show is definetly imagines audio (thanks guys)  .Take it or leave it

Greetz to Imagine ,Flawl3ss,DiLLoN,BDK,NOiR,TOXiCiNK,THC,Ez,Rx,





[img]http://img411.imageshack.us/img411/6898/sig1n.jpg[/img]




